<svg id="Layer_1" data-name="Layer 1" xmlns="http://www.w3.org/2000/svg" xmlns:xlink="http://www.w3.org/1999/xlink" viewBox="0 0 1920 1080"><defs><style>.cls-1,.cls-10,.cls-11,.cls-12,.cls-17,.cls-2,.cls-8,.cls-9{opacity:0.5;}.cls-1{fill:url(#Degradado_sin_nombre_5);}.cls-2{fill:url(#Degradado_sin_nombre_5-2);}.cls-3{fill:#fdf9c1;}.cls-4{fill:#e97c3e;}.cls-5{fill:#eb854c;}.cls-26,.cls-6{fill:#eb5b28;}.cls-7{fill:#f1b65f;}.cls-8{fill:url(#Degradado_sin_nombre_5-3);}.cls-9{fill:url(#Degradado_sin_nombre_5-4);}.cls-10{fill:url(#Degradado_sin_nombre_5-5);}.cls-11{fill:url(#Degradado_sin_nombre_5-6);}.cls-12{fill:url(#Degradado_sin_nombre_5-7);}.cls-13{fill:#ecac85;}.cls-14{fill:#fff;}.cls-15{fill:#f0af50;}.cls-16{fill:#e79969;}.cls-17{fill:url(#Degradado_sin_nombre_4);}.cls-18{fill:#faed52;}.cls-19{fill:#e2844a;}.cls-20{fill:#e9a175;}.cls-21{fill:url(#Degradado_sin_nombre_3);}.cls-22{fill:url(#Degradado_sin_nombre_4-2);}.cls-23{fill:url(#Degradado_sin_nombre_3-2);}.cls-24{fill:#fcf494;}.cls-25{fill:url(#Nueva_muestra_de_degradado_2);}.cls-26{opacity:0.7;}.cls-27{fill:#f9ea31;}.cls-28{fill:#efab47;}.cls-29{fill:url(#Degradado_sin_nombre_3-3);}.cls-30{fill:none;stroke:#f1b65f;stroke-miterlimit:10;stroke-width:3.31px;}.cls-31{fill:#fceee4;}.cls-32{fill:url(#Degradado_sin_nombre_2);}.cls-33{fill:#ea7b39;}</style><linearGradient id="Degradado_sin_nombre_5" x1="421.02" y1="847.42" x2="195.34" y2="997.87" gradientUnits="userSpaceOnUse"><stop offset="0" stop-color="#df7635" stop-opacity="0.02"/><stop offset="1" stop-color="#de7331" stop-opacity="0.64"/></linearGradient><linearGradient id="Degradado_sin_nombre_5-2" x1="1690.63" y1="850.5" x2="1464.96" y2="1000.95" xlink:href="#Degradado_sin_nombre_5"/><linearGradient id="Degradado_sin_nombre_5-3" x1="625.92" y1="812.86" x2="117.48" y2="1151.82" xlink:href="#Degradado_sin_nombre_5"/><linearGradient id="Degradado_sin_nombre_5-4" x1="1661.3" y1="828.27" x2="1152.85" y2="1167.23" xlink:href="#Degradado_sin_nombre_5"/><linearGradient id="Degradado_sin_nombre_5-5" x1="983.37" y1="808.24" x2="474.93" y2="1147.2" xlink:href="#Degradado_sin_nombre_5"/><linearGradient id="Degradado_sin_nombre_5-6" x1="1393.21" y1="802.07" x2="884.77" y2="1141.04" xlink:href="#Degradado_sin_nombre_5"/><linearGradient id="Degradado_sin_nombre_5-7" x1="1078.71" y1="814.77" x2="772.98" y2="1018.59" xlink:href="#Degradado_sin_nombre_5"/><linearGradient id="Degradado_sin_nombre_4" x1="701.11" y1="582.37" x2="746.41" y2="582.37" gradientUnits="userSpaceOnUse"><stop offset="0" stop-color="#eb5b28" stop-opacity="0"/><stop offset="1" stop-color="#f1b65f" stop-opacity="0.7"/></linearGradient><linearGradient id="Degradado_sin_nombre_3" x1="579.43" y1="590.31" x2="684.19" y2="590.31" gradientUnits="userSpaceOnUse"><stop offset="0" stop-color="#de7433" stop-opacity="0"/><stop offset="1" stop-color="#de7331" stop-opacity="0.5"/></linearGradient><linearGradient id="Degradado_sin_nombre_4-2" x1="725.34" y1="640.17" x2="948.63" y2="551.85" xlink:href="#Degradado_sin_nombre_4"/><linearGradient id="Degradado_sin_nombre_3-2" x1="946.77" y1="498.77" x2="988.61" y2="388.1" xlink:href="#Degradado_sin_nombre_3"/><linearGradient id="Nueva_muestra_de_degradado_2" x1="1177.41" y1="587.82" x2="1276.66" y2="587.82" gradientUnits="userSpaceOnUse"><stop offset="0" stop-color="#f4c652" stop-opacity="0"/><stop offset="1" stop-color="#faef5e"/></linearGradient><linearGradient id="Degradado_sin_nombre_3-3" x1="1408.42" y1="582.31" x2="1422.47" y2="495.81" xlink:href="#Degradado_sin_nombre_3"/><linearGradient id="Degradado_sin_nombre_2" x1="946.74" y1="712.51" x2="1000.16" y2="465.99" gradientUnits="userSpaceOnUse"><stop offset="0" stop-color="#f3be71" stop-opacity="0"/><stop offset="1" stop-color="#f1b65f" stop-opacity="0.7"/></linearGradient></defs><title>section_app_bg</title><path class="cls-1" d="M412.88,898.87c0,5.32-30.91,9.64-69,9.64s-69-4.32-69-9.64,30.91-9.65,69-9.65S412.88,893.54,412.88,898.87Z"/><path class="cls-2" d="M1682.49,902c0,5.32-30.91,9.64-69,9.64s-69-4.32-69-9.64,30.9-9.64,69-9.64S1682.49,896.62,1682.49,902Z"/><rect class="cls-3" x="979.02" y="115.78" width="571.58" height="465.3"/><polygon class="cls-4" points="1550.6 277.47 1489.59 277.47 1489.59 394.37 1414.41 394.37 1414.41 427.4 1353.08 427.4 1353.08 249.57 1279.36 249.57 1279.36 470.64 1208.64 470.64 1208.64 277.88 1153.24 277.88 1153.24 436.84 1139.39 436.84 1139.39 403.8 1067.46 403.8 1067.46 469.87 1040.47 469.87 1040.47 239.55 979.13 239.55 979.13 427.4 979.02 427.4 979.02 581.08 1550.6 581.08 1550.6 277.47"/><rect class="cls-3" x="359.65" y="115.78" width="571.58" height="465.3"/><polygon class="cls-4" points="931.22 277.47 882.54 277.47 882.54 394.37 807.36 394.37 807.36 427.4 746.03 427.4 746.03 249.57 672.31 249.57 672.31 470.64 601.59 470.64 601.59 277.88 546.19 277.88 546.19 436.84 532.34 436.84 532.34 403.8 460.41 403.8 460.41 469.87 433.42 469.87 433.42 239.55 359.65 239.55 359.65 518.63 359.65 581.08 931.22 581.08 931.22 277.47"/><path class="cls-5" d="M290.3,600.18s-21.42,94.61,12.5,158.87l33.91,64.27S345.64,662.66,290.3,600.18Z"/><path class="cls-6" d="M291.75,847.18c2.06,11.6,4.7,23.3,10.44,33.59s15,19.12,26.47,21.9c5.19,1.26,10.6,1.24,15.94,1.09,5.86-.15,12-.52,17-3.5,6.58-3.88,10-11.36,12.71-18.52a216.72,216.72,0,0,0,10.25-37.35c1.32-7.35,2.17-15.31-1.26-21.94-4.64-9-15.53-12.59-25.51-14.22-16.58-2.7-39.41-4.09-55.3,2.66C288.66,816.79,289.5,834.51,291.75,847.18Z"/><path class="cls-7" d="M329.36,823.62c13.15.77,27.41-1.24,35.7-5.7,1.65-.9,3.13-2,2.34-3.13-.92-1.3-4.43-1.83-7.48-2.14-15.82-1.63-33.33-2.37-48.82.25C288.42,816.75,317.32,822.92,329.36,823.62Z"/><path class="cls-4" d="M322.43,577s-10.71,180.3,14.28,246.35C336.71,823.32,352.78,662.66,322.43,577Z"/><path class="cls-5" d="M333.56,822h5.8c8.53-35.69,34.05-151.31,20.56-205.27,0,0-42.84,151.74-32.13,185.65Z"/><path class="cls-5" d="M1563,606.34s-21.43,94.61,12.49,158.88l33.92,64.26S1618.28,668.82,1563,606.34Z"/><path class="cls-6" d="M1564.39,853.34c2.07,11.6,4.71,23.3,10.45,33.59s15,19.13,26.47,21.9c5.19,1.26,10.6,1.24,15.94,1.1,5.86-.16,12-.53,17-3.51,6.59-3.87,10-11.36,12.71-18.51a215.93,215.93,0,0,0,10.25-37.36c1.32-7.34,2.18-15.31-1.25-21.94-4.65-9-15.53-12.59-25.51-14.22-16.58-2.7-39.41-4.08-55.3,2.67C1561.31,823,1562.14,840.67,1564.39,853.34Z"/><path class="cls-7" d="M1602,829.79c13.16.77,27.42-1.25,35.7-5.71,1.66-.89,3.13-2,2.35-3.13-.93-1.29-4.43-1.82-7.49-2.14-15.81-1.63-33.33-2.37-48.81.26C1561.07,822.91,1590,829.08,1602,829.79Z"/><path class="cls-4" d="M1595.08,583.13s-10.71,180.3,14.28,246.35C1609.36,829.48,1625.43,668.82,1595.08,583.13Z"/><path class="cls-5" d="M1606.2,828.16h5.8c8.53-35.69,34.06-151.31,20.57-205.27,0,0-42.85,151.74-32.14,185.66C1603.05,817.44,1604.9,823.72,1606.2,828.16Z"/><ellipse class="cls-8" cx="452.06" cy="928.77" rx="155.61" ry="20.03"/><path class="cls-9" d="M1643,944.18c0,11.06-69.67,20-155.61,20s-155.61-9-155.61-20,69.67-20,155.61-20S1643,933.12,1643,944.18Z"/><ellipse class="cls-10" cx="809.51" cy="924.15" rx="155.61" ry="20.03"/><path class="cls-11" d="M1375,918c0,11.06-69.67,20-155.62,20s-155.61-9-155.61-20,69.67-20,155.61-20S1375,906.92,1375,918Z"/><ellipse class="cls-12" cx="974.16" cy="884.47" rx="92.96" ry="20.03"/><path class="cls-13" d="M479.83,392.14l58.71,9.53-27.93-25.51L524,361.26l50.78,45.42a11.74,11.74,0,0,1-8.14,19.84l-71.14,2.23Z"/><polygon class="cls-7" points="504.35 542.62 503.18 925.9 483.01 927.34 469.01 602.17 450.28 603.61 431.16 924.46 410.99 923.01 413.54 535.69 504.35 542.62"/><path class="cls-13" d="M479.83,392.14,412,389.29a22.77,22.77,0,0,0-18.3,8l19.82,155.27,92.67,1.86-8.46-142.32S482.29,392.25,479.83,392.14Z"/><path class="cls-14" d="M510.38,362.4c-3.72,3-8.46,5.7-9.21,10.39-.65,4.06,2.34,8.11,6.18,9.58s8.24.76,12-.92c6-2.7,11-8.19,12.15-14.72.82-4.79-1.32-14-6.88-15.67C518.31,349.15,515,358.78,510.38,362.4Z"/><polygon class="cls-15" points="410.99 923.01 371.75 934.73 373.19 938.09 430.28 931.86 431.16 924.46 410.99 923.01"/><path class="cls-16" d="M284.16,393.35l-6.22-10.58,6.84-14.3s3.74-10,3.74-13.07-3.11-7.46-6.22-1.86a115.46,115.46,0,0,1-6.22,9.95l-18.45-27.37a2.83,2.83,0,0,0-2.34-1.24h0a2.82,2.82,0,0,0-2.48,4.16l4.22,7.85a2.82,2.82,0,0,1-4.08,3.66l-.85-.59a10.34,10.34,0,0,0-14.27,2.51l-.32.45.31,9.3a20.74,20.74,0,0,0,7.57,15.35c10.89,8.93,30.24,24.58,30.69,23.24C276.7,398.94,284.16,393.35,284.16,393.35Z"/><path class="cls-16" d="M494.57,332.27c-2.55-1.26-5.87,0-7.46,2.3a9.25,9.25,0,0,0-.71,8.19c1.77,5,7.21,8.54,12.45,7.76s9.49-6.12,8.71-11.37a11,11,0,0,0-7-8.34,14.9,14.9,0,0,0-11.11.44"/><path class="cls-16" d="M493.22,338.15l30.52,24s.72,13.07-6.54,14.53c-2.18,1.45-30.52-28.34-30.52-28.34Z"/><path class="cls-15" d="M483,927.34l1,6.43,49.41,8.16s2.4-3.84,1-4.32-31.19-11.71-31.19-11.71Z"/><path class="cls-16" d="M434.8,359.35l1.55,42.25a10,10,0,0,0,8.41,9.84h0a10,10,0,0,0,11.44-8.53l2.14-36.54Z"/><rect class="cls-7" x="471.61" y="321.85" width="21.79" height="45.94" transform="translate(71.2 -82.43) rotate(10.54)"/><rect class="cls-7" x="471.63" y="321.63" width="19.38" height="45.94" transform="matrix(0.98, 0.18, -0.18, 0.98, 71.14, -82.21)"/><path class="cls-14" d="M432.35,395.4s-3.09,2.65-3.31,3.53S441,418.8,441,418.8l8.17-13,10.16,13,4.19-23.62-6.84-1.55-7.73,8.83-13.69-11Z"/><polygon class="cls-13" points="449.13 405.78 444.05 414.17 447.58 420.57 445.6 425.43 447.58 487.7 454.65 495.65 461.05 488.14 454.43 425.21 450.68 420.13 455.31 413.73 449.13 405.78"/><path class="cls-16" d="M417.18,314.16c-4.28,9.9-3.8,21.25-1.55,31.8,2.45,11.47,7.25,23,16.33,30.39s23.17,9.52,32.53,2.45c5.57-4.2,8.72-10.87,10.84-17.52,4.22-13.24,5.08-28-.42-40.78C464.84,297.1,429.21,286.36,417.18,314.16Z"/><polygon class="cls-13" points="402.03 441.93 329.23 465.43 276.32 407.79 289.51 396.9 338.28 436.88 393.72 397.31 403.17 413.84 402.03 441.93"/><polygon class="cls-14" points="267.99 403.92 273.59 412.63 298.47 398.32 288.52 388.37 267.99 403.92"/><path class="cls-16" d="M404.72,332.92c-3.14,1.38-4.68,5.17-4.34,8.59s2.22,6.48,4.32,9.19a16,16,0,0,0,4.07,4,13.11,13.11,0,0,0,5.22,1.7c2.25.3,4.9.06,6.22-1.79a7.33,7.33,0,0,0,1-3.4c.69-5.63-.77-7.86-4-11.93C414.21,335.51,410.28,330.47,404.72,332.92Z"/><path class="cls-7" d="M425.54,333.3c-.47,5.87-3.25,11.89-8.41,14.75a34.27,34.27,0,0,1-6.56-17.32c-.84-7.68.41-15.85,4.9-22.14,5.12-7.18,14-11.1,22.76-11.74s17.57,1.69,25.73,5c3.54,1.46,8.08,2.93,10.78.22a18.76,18.76,0,0,1,2.17,8.65,11.77,11.77,0,0,1-1.72,6.6c-2.16,3.24-5.65,6.85-9.45,7.7-28.71,6.41-42.06-9.17-42.19-8.74-.47,1.53.45,3.45.81,5A39.66,39.66,0,0,1,425.54,333.3Z"/><path class="cls-6" d="M848,655.43,839.8,496.52s-40.86-2.45-53-2.45c-6.62,0-17.94,3.14-26.87,6-8.39,2.69-15.36,2.46-19.44,10.27l-67,128.43,41.17,3.92L728.36,627l-7-10.58,25-59-.41,100Z"/><path class="cls-17" d="M745.52,534l-44.41,80.25,13.83,16.2a24.4,24.4,0,0,0,11-.61l2.46-2.81-7-10.58,25-59Z"/><path class="cls-18" d="M780.94,623.3c-1.72-.57-15.47-8.6-25.79-8.6s-22.92,10.89-22.92,10.89-1.72,5.73,5.16,4.58,11.46-1.71,11.46-1.71-12,6.3-4,7.45,41.83,0,41.83,0Z"/><path class="cls-19" d="M778.4,646.61H646V636.9H778.4a4.87,4.87,0,0,1,4.86,4.86h0A4.86,4.86,0,0,1,778.4,646.61Z"/><path class="cls-20" d="M742.08,646.61H614.42a12.45,12.45,0,0,1-12-9.26l-22.53-84.89a12.45,12.45,0,0,1,12-15.64H703.37a12.45,12.45,0,0,1,12,9.26Z"/><path class="cls-21" d="M591.89,536.82a12.45,12.45,0,0,0-12,15.64l22.53,84.89a12.41,12.41,0,0,0,4.2,6.46l77.6-107Z"/><path class="cls-14" d="M666.9,599.23c1.4,5.54-2.08,10-7.78,10a14,14,0,0,1-12.85-10c-1.4-5.54,2.09-10,7.79-10A13.94,13.94,0,0,1,666.9,599.23Z"/><path class="cls-18" d="M782.66,474.31c1.14,2.29,9.17,33.81,9.17,33.81a10.16,10.16,0,0,0,9.74,4.58c6.87-.57,9.74-10.31,9.74-10.31l-12-39.54Z"/><path class="cls-16" d="M825.07,454.9c0,21.71-23.05,45.73-44.76,45.73s-33.86-24-33.86-45.73a39.31,39.31,0,0,1,78.62,0Z"/><path class="cls-14" d="M789,498.38l-4.58,12L787.24,523l9.17-13.18,9.17,14.9,10.31-18.34-6.87-12s-3.44,8-10.89,9.75S789,498.38,789,498.38Z"/><polygon class="cls-20" points="796.41 509.84 789.53 518.43 792.97 523.59 787.81 534.48 788.96 606.11 795.84 620.43 805.58 604.39 803.29 536.2 798.13 523.02 802.14 517.29 796.41 509.84"/><polygon class="cls-22" points="844.63 529.67 847.12 655.32 788.03 654.7 844.63 529.67"/><path class="cls-6" d="M839.8,496.52l5.45,118.41-54.73,11.15L798,640.39l78.34,4.55-10.7-117.12a34.84,34.84,0,0,0-19.27-28.07Z"/><polygon class="cls-14" points="780.94 623.3 791.83 624.44 801.57 640.49 783.26 641.76 780.94 623.3"/><path class="cls-7" d="M726.37,676.9l-96.85,24.64,49.27,193.72,17-8.5L681.34,720.23,768,693l-50.13,28.89.85,158H734s42.48-154.63,46.73-154.63,75.62-47.58,75.62-47.58Z"/><polygon class="cls-6" points="626.67 910.51 694.03 905.72 695.88 884.5 623.88 900.89 626.67 910.51"/><polygon class="cls-6" points="681.34 922.45 694.94 924.14 733.17 909.7 734.02 879.96 718.73 879.96 711.93 898.65 691.32 911.11 681.34 922.45"/><path class="cls-7" d="M745.08,440.92c-1.54,2.83-3.11,6.12-2,9.12,1.4,3.67,6,4.8,9.87,5.25a154.68,154.68,0,0,0,20.3,1A62.14,62.14,0,0,0,786.7,455c7.16-1.68,13.68-5.34,20.09-8.95,4.57-2.58,9.63-5.83,10.46-11s-2.91-9.78-6.38-13.65a44,44,0,0,0-6.35-6.16C798.7,411,791,409.84,783.86,411,766.16,413.84,753.35,425.77,745.08,440.92Z"/><path class="cls-7" d="M809.4,453.65a4.2,4.2,0,0,1,5.26-2.47,6,6,0,0,1,3.76,4.87,10.84,10.84,0,0,1-1.22,6.27,15,15,0,0,0-1.25,2.89,10.61,10.61,0,0,0-.18,2.64q.09,5.76.19,11.52c3.17-1.2,5-4.43,6.62-7.43,3.5-6.57,7.11-13.57,6.7-21-.34-6.16-3.4-11.8-6.51-17.14a9.27,9.27,0,0,0-2.46-3.08,6.32,6.32,0,0,0-5.42-.58,18.53,18.53,0,0,0-4.94,2.68l-4.58,3.12a10.63,10.63,0,0,0-3.83,3.7c-1.45,2.91.57,4.13,2.27,5.89C804.67,446.42,803.15,465.51,809.4,453.65Z"/><path class="cls-14" d="M751.61,486.54c-5.2,0-11-4.42-12.93-9.85-1-2.89-.82-5.69.58-7.66a6.71,6.71,0,0,1,5.71-2.71c5.2,0,11,4.42,12.93,9.85,1,2.89.81,5.68-.58,7.66A6.74,6.74,0,0,1,751.61,486.54ZM745,467.86a5.22,5.22,0,0,0-4.45,2.06c-1.1,1.56-1.25,3.84-.39,6.25C741.86,481,747,485,751.61,485a5.23,5.23,0,0,0,4.45-2.06c1.1-1.56,1.24-3.84.39-6.25C754.72,471.82,749.57,467.86,745,467.86Z"/><path class="cls-14" d="M777.68,486.54c-5.2,0-11-4.42-12.93-9.85-1-2.89-.81-5.69.58-7.66a6.71,6.71,0,0,1,5.71-2.71c5.2,0,11,4.42,12.93,9.85,1,2.89.81,5.68-.58,7.66A6.74,6.74,0,0,1,777.68,486.54ZM771,467.86a5.23,5.23,0,0,0-4.45,2.06c-1.1,1.56-1.25,3.84-.39,6.25,1.73,4.87,6.88,8.83,11.48,8.83a5.23,5.23,0,0,0,4.45-2.06c1.1-1.56,1.24-3.84.39-6.25C780.79,471.82,775.64,467.86,771,467.86Z"/><path class="cls-6" d="M921.32,393.49c.41,6.18,3.79,12.32,2.09,18.26-1.4,4.88-5.94,8.36-7.35,13.23-1.59,5.53,1.22,11.27,3.94,16.34,2.28,4.24,5.46,9.06,10.28,9.09a13.56,13.56,0,0,0,6-1.9L950,441.62a22.66,22.66,0,0,0,5.58-3.54c2.38-2.28,3.62-5.48,4.75-8.57,3.52-9.71,6.68-19.88,5.86-30.17s-6.44-20.82-16-24.64c-5.37-2.13-21.08-4-25.69.56-2.06,2-1,4.22-1.29,6.83C922.77,386,921.05,389.44,921.32,393.49Z"/><path class="cls-16" d="M932.45,424.33l-4.68,1.28c-19.46,12.66-30.84,30.26-33.29,53.34l-9.92,160.61,14.91-6.67Z"/><path class="cls-7" d="M1030.83,423.11l-79.44-3.24c-6.72-.27-18.54,2.12-25,4.05l-10.12,4.72,17.82,85.11h0a169.08,169.08,0,0,0-23.38,91l9.44,116h89l11.34-122.4A169,169,0,0,0,1007,525.31L1002.18,514Z"/><path class="cls-23" d="M935.4,457.25a25.24,25.24,0,0,0,9.12,10.09c5.29,3.14,11.87,3.58,17.89,2.31s11.59-4.12,16.9-7.23c9.57-5.61,18.67-12.3,25.63-20.93,4.9-6.07,8.69-14.72,4.72-21.43-2.55-4.3-7.57-6.42-12.4-7.72C971.47,405.41,915.7,420.11,935.4,457.25Z"/><path class="cls-16" d="M996.64,381.66c0,21.11-22.52,49.78-43.63,49.78s-32.83-28.67-32.83-49.78a38.23,38.23,0,1,1,76.46,0Z"/><path class="cls-16" d="M1030.83,423.11l55.1,71.82a16,16,0,0,1-4.33,23.35l-64.42,39.41-8-12.42,44.19-35.43a7.85,7.85,0,0,0,1.56-10.58l-33.52-47.49Z"/><path class="cls-3" d="M854.08,646.64h34.6a10.54,10.54,0,0,0,10.52-9.81l.27-3.94Z"/><path class="cls-16" d="M948.11,407.36c-.51-1.27,9.13,25.23,9.13,25.23s2.18,10.88,11.31,8.27,3.48-41.33,2.18-41.76S949,409.54,948.11,407.36Z"/><path class="cls-6" d="M970.78,376.63c-17.69,10.78-36.31,21.85-57,23.11,4.65-5.77,3.72-14,4.57-21.39a40.58,40.58,0,0,1,53.8-33.61c4.27,1.51,8.42,3.85,11.06,7.53C990.83,362.89,979,371.63,970.78,376.63Z"/><path class="cls-6" d="M969.18,419.07c1.18,5.68,4.79,10.72,5.44,16.48.42,3.75-.45,7.5-1.3,11.17L970.2,460c6.16-1.23,11.77-4.45,16.68-8.36,17.71-14.1,26.86-38.2,23-60.51a104.27,104.27,0,0,0-5.46-18.57c-1.75-4.66-3.67-9.36-6.81-13.22s-7.71-6.86-12.69-7c-5.95-.16-11.36,3.77-14.85,8.59-2.38,3.29-4.13,7.2-4,11.26s1.49,17.88,5.21,19.5c4.71-2.85,11.76-.33,13.58,4.87,2.88,8.2-4.46,9.77-9.36,12.57C969.35,412.66,967.86,412.72,969.18,419.07Z"/><path class="cls-6" d="M1009.79,394.15c3.75,2.82,8,5,11.33,8.3s5.5,8.39,3.75,12.75c-1.1,2.74-3.52,4.68-5.6,6.77s-4,4.79-3.68,7.72c.22,1.94,1.4,3.62,2.48,5.25,2.81,4.26,5.24,9.25,4.41,14.28a13.89,13.89,0,0,1-7.1,9.58,19.21,19.21,0,0,1-12,1.91c-2.36-.35-4.7-1-7.09-.95-6.29.28-11.25,6-17.5,6.7a11.54,11.54,0,0,1-12.72-13.41c1-5.76,6-9.81,10.67-13.37s9.61-7.79,10.29-13.6c.51-4.33-1.53-8.67-1-13,.77-6.21,6.54-10.76,7.93-16.85.79-3.47-.48-12.23,5-12.12C1003.09,384.19,1006.71,391.83,1009.79,394.15Z"/><path class="cls-6" d="M964.14,387.22a46.76,46.76,0,0,1-4,5.92l-6,8.06a43.47,43.47,0,0,0,1.42-15.93,7.14,7.14,0,0,1,0-2.44c.37-1.51,1.71-2.56,3-3.41,1.84-1.23,6.58-5.17,8.46-2.63C968.51,378.78,965.13,385.36,964.14,387.22Z"/><polygon class="cls-7" points="1010.75 533.59 1007.11 536.82 1019.75 551.6 1010.75 533.59"/><path class="cls-24" d="M1279.36,655.43l-8.16-158.91s-40.86-8.62-53-8.62c-6.62,0-17.94,3.15-26.87,6a33.52,33.52,0,0,0-19.44,16.43l-67,128.43,41.17,3.92L1159.76,627l-7-10.58,25-59-.4,100Z"/><path class="cls-16" d="M1273.89,450.52a39.31,39.31,0,0,1-39.31,39.31c-12,0-20.35-12.47-27.56-21-5.82-6.85-10.4-8.79-10.4-18.49,0-21.71,16.25-39.16,38-39.16A39.31,39.31,0,0,1,1273.89,450.52Z"/><polygon class="cls-7" points="1173.49 646.61 1036.25 646.61 1007.11 536.82 1144.35 536.82 1173.49 646.61"/><polygon class="cls-14" points="1173.49 646.61 1040.53 646.61 1010.75 533.59 1145.26 536.82 1173.49 646.61"/><rect class="cls-7" x="1037.36" y="638.65" width="94.09" height="7.96"/><path class="cls-25" d="M1224.08,628.12,1276.66,603l-4.35-84.75-9.09.55-68.16,71.54s-10.17,26.53-17.57,47.44l-.08,19.62,70.67-1.36Z"/><polygon class="cls-4" points="1136.94 621.23 1063.7 621.23 1047.29 558.97 1121.39 560.75 1136.94 621.23"/><path class="cls-4" d="M1157.78,676.9l-96.86,24.64,49.28,193.72,17-8.5-14.44-166.53L1199.41,693l-50.13,28.89.85,158h15.3s42.48-154.63,46.73-154.63,75.61-47.58,75.61-47.58Z"/><polygon class="cls-7" points="1058.08 910.51 1125.44 905.72 1127.29 884.5 1055.29 900.89 1058.08 910.51"/><path class="cls-14" d="M1209.84,504.5a106.3,106.3,0,0,0,4.25,22.49,8.27,8.27,0,0,0,2.41,4.34c2.72,2.13,6.67.34,9.51-1.63a67.15,67.15,0,0,0,13.38-12.08c2.47-3,4.66-6.34,5.42-10.14s-.16-8.11-3.09-10.64c-4.54-3.91-14.29-3.77-20-3.9C1213.7,492.76,1209.16,496.07,1209.84,504.5Z"/><polygon class="cls-7" points="1112.75 922.45 1126.34 924.14 1164.58 909.7 1165.43 879.96 1150.13 879.96 1143.34 898.65 1122.73 911.11 1112.75 922.45"/><path class="cls-16" d="M1219.78,470.34l-2.9,33.14s2.32,13.95,10.46,11.62,9.3-8.72,9.3-8.72l3.49-39.53Z"/><path class="cls-6" d="M1249.21,437.78c6.19-.25,12.56-.67,18.14-3.36s10.25-8.17,10.15-14.36-6.49-12-12.38-10.12c-1.35.44-2.58,1.21-3.95,1.54-2.14.5-4.36-.16-6.47-.78-15.9-4.68-33.68-7.8-48.52-.43-2.76,1.37-5.46,3.19-6.91,5.91a18.32,18.32,0,0,0-1.61,7q-.89,9.63-1.16,19.31c4.3-2.33,8.57-5.1,13-7.07s7.17,0,11.82.94C1230.49,438.22,1239.92,438.15,1249.21,437.78Z"/><path class="cls-26" d="M1212.3,427.27a14.26,14.26,0,0,0-11.48,3.19,39,39,0,0,0-5.38,16.68,32.61,32.61,0,0,1,.79,6.31,16.93,16.93,0,0,0,1.33,5.49c2.26,3.4,5.88,5.7,9.46,9.92.14.17.29.36.44.53,3.81-6.57,10-21.58,11.16-23.08,1.78-2.31,7.49-9.24,6.46-12.32S1215.12,427.79,1212.3,427.27Z"/><path class="cls-16" d="M1212.35,443.28a3.66,3.66,0,0,0-1.11-1.17,3.86,3.86,0,0,0-1.94-.34c-2.59,0-5.56.18-7.12,2.25a7.27,7.27,0,0,0-1.16,3,26.86,26.86,0,0,0-.36,7.8c.41,4,2.33,8.49,6.25,9.4a7.58,7.58,0,0,0,6.59-2C1219.65,456.64,1216.37,449.22,1212.35,443.28Z"/><path class="cls-7" d="M1262,463.83a13.59,13.59,0,0,1,6.13-.42c2,.48,3.91,2.09,4,4.15a12.64,12.64,0,0,1-.45,3c-.51,3.1.72,6.18,1.8,9.12,2.35,6.44,3.91,14.12,0,19.75-3.67,5.29-10.89,6.76-17.33,6.47-19.09-.88-37-14.53-42.82-32.73-2-6.34-2.7-13.32-.63-19.66.63-1.92,2.27-4.13,4.18-3.46a24.08,24.08,0,0,0,12.56,17.51C1241.25,473.58,1250.74,466.46,1262,463.83Z"/><path class="cls-7" d="M1015.06,537l127.62,3.06,26.54,103.24H1043.08l-28-106.3m-4.31-3.41,29.78,113h133l-28.23-109.79-134.51-3.23Z"/><path class="cls-14" d="M1226.09,646.61H1037.36v-8h188.73a4,4,0,0,1,4,4h0A4,4,0,0,1,1226.09,646.61Z"/><path class="cls-19" d="M1130.56,646.61h-93.2v-8h93.2a4,4,0,0,1,4,4h0A4,4,0,0,1,1130.56,646.61Z"/><path class="cls-24" d="M1271.2,496.52l-34.32,90.74-87.55,11.65,3.45,17.51,112-3.65L1295.06,533a18.92,18.92,0,0,0,.55-12.29,34.83,34.83,0,0,0-17.86-20.94Z"/><path class="cls-16" d="M1149.33,598.91l-47.21-25.22a5.11,5.11,0,0,0,1.2,6.87c3.73,3.11,15.68,12,15.68,12v6.87c3.94,12.89,16.12,19,29.52,17.51l4.26-.47Z"/><path class="cls-27" d="M1341.68,646.42H1285.3s-1.64-4.09,7.35-5.72,34.32-2.46,34.32-2.46l6.54-7.35,9,2.45Z"/><path class="cls-20" d="M1388,474.08l-60.08,162.14,14.83,3.7,92.3-158s-2.65-10.23-18.33-20S1388,474.08,1388,474.08Z"/><path class="cls-16" d="M1389.62,399.77a39.32,39.32,0,0,0-54.33-11.89c-10.25,6.57-16.82,18.3-18,30.32-.6,6.09-.63,8.22,1.84,13.85s9.41,13.52,5.45,24.86c-.92,2.66-.15,6.72,3,8s5.79-2.12,8.78-2.26c5.67-.25,16.81,8.43,20.87,11.85,1.73,1.46,3.61,3,5.86,3.28a9.69,9.69,0,0,0,5.59-1.36c8.63-4.48,13.89-13.43,18.2-22.14,4-8.16,7.67-16.79,8.28-25.82A39.15,39.15,0,0,0,1389.62,399.77Z"/><path class="cls-16" d="M1388.14,475.78c1.66,1.71,3.73,3.51,6.09,3.16a7.25,7.25,0,0,0,2.94-1.39,45.35,45.35,0,0,0,6.68-5.69c1.23-1.28,2.45-2.79,2.48-4.57a6.85,6.85,0,0,0-.75-2.88c-4-9-12.13-15.78-15-25.15-1.31-4.25-1.44-8.8-2.9-13s-4.84-8.25-9.28-8.43c-2.62-.1-5.11,1.17-7.22,2.74A25.77,25.77,0,0,0,1361.09,443a26.36,26.36,0,0,0,11.43,19.18A99.65,99.65,0,0,1,1388.14,475.78Z"/><path class="cls-6" d="M1335.29,387.88A40,40,0,0,0,1319.66,408c7.54,3.73,26.77-4.55,32-7.71a37.56,37.56,0,0,0,18,33.22c6.91,4.09,15.06,5.87,22,9.85a53.26,53.26,0,0,0,3.49-14.94,39.3,39.3,0,0,0-59.81-40.54Z"/><path class="cls-16" d="M1356.37,427.77c-2.21-4.08,0-9.7,4.15-11.76s9.5-.79,12.81,2.45a16.32,16.32,0,0,1,4.38,12.76c-.41,5.85-4.67,12.16-10.52,11.86-3.22-.17-6.07-2.34-7.87-5a31.15,31.15,0,0,1-3.64-8.93"/><polygon class="cls-14" points="1409.72 455.49 1398.51 442.47 1380.79 475.01 1387.3 495.62 1410.8 469.22 1409.72 455.49"/><path class="cls-13" d="M1422.53,457.26l105.19,117.09-64.41,56.57-78.9-121.2c-8.06-11.61,4.27-37.22,12.32-48.83h0A17.75,17.75,0,0,1,1422.53,457.26Z"/><polygon class="cls-28" points="1524.08 933.41 1495.8 774.04 1463.31 630.92 1527.72 574.35 1524.04 772.25 1539.76 925.56 1524.08 933.41"/><polygon class="cls-7" points="1527.72 574.35 1474.69 938.48 1458.6 935.87 1463.31 630.92 1527.72 574.35"/><polygon class="cls-7" points="1429.11 950.06 1471.6 948.43 1474.05 935.35 1461.8 933.72 1420.94 945.16 1421.76 950.88 1429.11 950.06"/><polygon class="cls-28" points="1539.76 925.56 1540.99 937.87 1491.84 940.91 1491.4 937 1534.9 923.08 1539.76 925.56"/><path class="cls-18" d="M1320.67,646.42h-56.38s-1.64-4.09,7.35-5.72,36.26-2.25,36.26-2.25l4.6-7.56,12.3,4.71Z"/><path class="cls-13" d="M1401,467.72l-42.78,80.75-51.29,89.6,16.68.62,45.73-63,60.54-77.38a21.09,21.09,0,0,0,5.74-25.95h0A21.1,21.1,0,0,0,1401,467.72Z"/><path class="cls-29" d="M1425.35,572.62c-1.18-16.4-6.95-67.42-6.95-67.42l-17.62,29.66Z"/><path class="cls-3" d="M959.07,706.94c-2.88,0-25.9,9.6-25.9,9.6l18,147.72c-4.08,1.92-9.74,3-13.57,4.14-8.84,2.53-16.76,3.44-24.56,8.64-.63.45-.83,2.7-.94,3.46-.26,1.7,2,2.45,3.76,2.52q16,.71,32,.14c6.8-.24,12.35-3.71,18.4-6.81,3.52-1.81,4.86-7.16,4.66-9.66C970.85,865.93,961.79,706.94,959.07,706.94Z"/><path class="cls-7" d="M939.28,877.62c10.27-1,24.1-5.53,32.1-12,.72,6.82-1.29,13.36-14.26,16.69-15,3.84-31,8.1-45.84,3.7-1.58-.47-3.41-1.47-3.37-3.12a3.66,3.66,0,0,1,.89-2c2.63-3.51,10.43-9.79,15.07-8.26,2.41.8,4.13,3.58,6.87,4.43A22.57,22.57,0,0,0,939.28,877.62Z"/><path class="cls-3" d="M1014.05,866.69c-.06-.76-9.12-159.75-11.84-159.75-2.88,0-25.9,9.6-25.9,9.6l18,147.72c3,8,5.62,15.56,10,22.85s10.33,13.88,17.88,17.83c.82.42,1.85.81,2.6.28a2.34,2.34,0,0,0,.8-1.34c1.27-4.38-.6-9-2.43-13.17C1019.84,883.08,1014.71,875,1014.05,866.69Z"/><path class="cls-7" d="M999,886.21c4.59,8.51,10.23,17.18,19,21.16a7.87,7.87,0,0,0,4.78.88,6.1,6.1,0,0,0,4.33-4.6,13.15,13.15,0,0,0-.36-6.58,33.38,33.38,0,0,0-4-9.2,2.87,2.87,0,0,0-1.75-1.52c-1-.16-1.84.72-2.67,1.32-2.28,1.64-5.54,1.34-8,0a19.71,19.71,0,0,1-5.9-5.92c-3.35-4.6-6.32-13.05-11-15.69C992.13,872.91,995.78,880.22,999,886.21Z"/><circle class="cls-7" cx="746.52" cy="910.15" r="10.99"/><circle class="cls-7" cx="878.84" cy="910.15" r="10.99"/><path class="cls-7" d="M820.88,910.15a11,11,0,1,1-11-11A11,11,0,0,1,820.88,910.15Z"/><path class="cls-30" d="M746.52,910.15v-5.7a23,23,0,0,1,23.05-23h43.24v-112"/><path class="cls-30" d="M877.62,910.15v-5.7a23,23,0,0,0-23-23H811.34v-112"/><line class="cls-30" x1="809.88" y1="910.15" x2="809.88" y2="881.41"/><rect class="cls-7" x="798.17" y="824.82" width="24.39" height="55.61"/><rect class="cls-7" x="802.08" y="770.39" width="15.61" height="63.21"/><circle class="cls-7" cx="1168.21" cy="910.15" r="10.99"/><circle class="cls-7" cx="1300.53" cy="910.15" r="10.99"/><circle class="cls-7" cx="1231.57" cy="910.15" r="10.99"/><path class="cls-30" d="M1168.21,910.15v-5.7a23,23,0,0,1,23-23h43.24v-112"/><path class="cls-30" d="M1299.3,910.15v-5.7a23,23,0,0,0-23-23H1233v-112"/><line class="cls-30" x1="1231.57" y1="910.15" x2="1231.57" y2="881.41"/><rect class="cls-7" x="1219.86" y="824.82" width="24.39" height="55.61"/><rect class="cls-7" x="1223.76" y="770.39" width="15.61" height="63.21"/><rect class="cls-31" x="569.56" y="658.37" width="754.81" height="119.59"/><rect class="cls-7" x="570.64" y="659.31" width="12.7" height="304.9"/><rect class="cls-7" x="1320.19" y="659.31" width="12.7" height="304.9"/><polygon class="cls-32" points="1332.84 728.99 568.64 659.14 1332.84 659.14 1332.84 728.99"/><rect class="cls-33" x="540.15" y="646.61" width="820.7" height="20.33"/></svg>