<svg xmlns="http://www.w3.org/2000/svg" xmlns:xlink="http://www.w3.org/1999/xlink" viewBox="0 0 195.55 187.55"><defs><style>.cls-1{isolation:isolate;}.cls-2{mix-blend-mode:multiply;fill:url(#radial-gradient);}.cls-3{fill:url(#linear-gradient);}.cls-4{fill:#de7331;}.cls-5{fill:url(#linear-gradient-2);}.cls-6{fill:url(#linear-gradient-3);}.cls-7{fill:#e97c3e;}.cls-8{fill:url(#linear-gradient-4);}.cls-9{fill:#f0a374;}.cls-10{fill:#e97d40;}.cls-11{fill:#f4c652;}.cls-12{fill:#eb5b28;}.cls-13{fill:#ea7b39;}.cls-14{fill:#e79969;}.cls-15{fill:#f9ea31;}.cls-16{fill:#fff;}.cls-17{fill:#efab47;}</style><radialGradient id="radial-gradient" cx="-49.93" cy="92.54" r="28.13" gradientTransform="translate(81.2 158.86) scale(0.75 0.18)" gradientUnits="userSpaceOnUse"><stop offset="0" stop-color="#ea7b39"/><stop offset="1" stop-color="#ea7b39" stop-opacity="0"/></radialGradient><linearGradient id="linear-gradient" x1="112.96" y1="44.68" x2="97.71" y2="121.29" gradientTransform="matrix(1.23, -0.06, 0.06, 1.22, -82.14, -14.44)" gradientUnits="userSpaceOnUse"><stop offset="0" stop-color="#e56813"/><stop offset="1" stop-color="#efab47"/></linearGradient><linearGradient id="linear-gradient-2" x1="74.01" y1="163.41" x2="64.92" y2="209.1" gradientTransform="translate(29.29 -70.76) rotate(11.15)" xlink:href="#linear-gradient"/><linearGradient id="linear-gradient-3" x1="646.01" y1="2.27" x2="639.65" y2="34.2" gradientTransform="matrix(-0.92, 0.4, 0.4, 0.92, 608.78, -135.5)" xlink:href="#linear-gradient"/><linearGradient id="linear-gradient-4" x1="44.19" y1="168.71" x2="44.19" y2="162.58" gradientUnits="userSpaceOnUse"><stop offset="0.01" stop-color="#e97c3e"/><stop offset="1" stop-color="#eb5b28"/></linearGradient></defs><title>note_context_1</title><g class="cls-1"><g id="Layer_2" data-name="Layer 2"><g id="Layer_1-2" data-name="Layer 1"><ellipse class="cls-2" cx="43.76" cy="175.7" rx="21.09" ry="5.12"/><path class="cls-3" d="M.65,97.7c-.8-3.66-1.18-7.56.76-11a7.4,7.4,0,0,1,3.65-3.29c5-2,9.49,2.42,12,6.73,1.94,3.32,3.52,7,6.89,9.15a7.71,7.71,0,0,0,4.33,1.31c5.65-.15,7.2-6.47,5.37-10.81-1.54-3.64-4.71-6.3-7.52-9.1A61.35,61.35,0,0,1,10.51,54.14c-1.79-6.29-2.43-13.56,2.4-18.64a9.05,9.05,0,0,1,9.8-2.4c4.17,1.66,5,5.69,5.62,9.4.55,3.09,1.24,6.41,3.91,8.33a4.67,4.67,0,0,0,5.71.05c1.62-1.38,1.43-3.45,1.31-5.33A45.72,45.72,0,0,1,50.58,12.9C54.88,8.06,62.25,4,67.52,8.35a9.08,9.08,0,0,1,2.81,4.37c1.23,4,.3,8.08-.62,12l-5,21.59a2.32,2.32,0,0,0,3.59,2.41l15-10.32A9.43,9.43,0,0,1,88,36.7c5.56-.34,7.14,4.44,7.2,8.52.15,9-4.67,17.51-11.08,23.9s-14.34,11-22.08,15.73c-2.41,1.47-4.92,3.08-5.78,5.91a4.31,4.31,0,0,0,1.12,4.54c2.15,1.86,5.17.57,7.4-.9,6.91-4.55,12.66-11,21.08-12.9a15.08,15.08,0,0,1,9,.59c8.84,3.58,8.38,13,4.19,19-4.41,6.37-11,10.56-17.24,15C69.27,125,51.83,141,35,135.88c-9.86-2.95-18.53-10.43-24.78-18.34A49.2,49.2,0,0,1,.65,97.7Z"/><path class="cls-4" d="M45.67,158.3a.45.45,0,0,1-.44-.41A451.1,451.1,0,0,1,51.94,38.14a.45.45,0,0,1,.52-.35.45.45,0,0,1,.35.51,449.38,449.38,0,0,0-6.7,119.52.45.45,0,0,1-.41.47Z"/><path class="cls-4" d="M47.41,74.46a22.7,22.7,0,0,1-8-1.39c-6.31-2.4-10.62-7.46-13.14-11.29-3.25-5-5.43-10.66-7.36-15.69a.45.45,0,0,1,.26-.57.44.44,0,0,1,.56.26c1.91,5,4.08,10.64,7.28,15.52,2.44,3.72,6.63,8.63,12.72,10.94,7.56,2.87,17.33,1.07,25.47-4.71,7.46-5.29,12.88-12.8,18.12-20.06a.43.43,0,0,1,.61-.09.43.43,0,0,1,.1.61c-5.28,7.32-10.74,14.88-18.32,20.26A32.26,32.26,0,0,1,47.41,74.46Z"/><path class="cls-4" d="M42.4,123.12A26.51,26.51,0,0,1,34,121.79c-10.79-3.6-17.63-14-21.83-21.44a.44.44,0,1,1,.77-.43c4.13,7.35,10.83,17.53,21.34,21,9,3,19.93.67,29.35-6.2l1.81-1.31c8-5.81,15.52-11.3,23.42-19.41a.44.44,0,0,1,.62,0,.43.43,0,0,1,0,.62c-8,8.16-15.52,13.67-23.54,19.5l-1.8,1.31C57.27,120.48,49.59,123.12,42.4,123.12Z"/><path class="cls-5" d="M35.11,127.32a7.56,7.56,0,0,1,1.63-5.12,3.6,3.6,0,0,1,2.1-1.13c2.58-.36,4.16,2.24,4.84,4.57.52,1.79.84,3.69,2.16,5.12a3.58,3.58,0,0,0,1.88,1.12c2.66.59,4.12-2.22,3.77-4.49-.3-1.9-1.48-3.52-2.46-5.17a30,30,0,0,1-4.24-14.36c-.11-3.19.44-6.7,3.29-8.54a4.35,4.35,0,0,1,4.87,0c1.76,1.27,1.66,3.27,1.54,5.1-.1,1.52-.17,3.17.86,4.39a2.24,2.24,0,0,0,2.67.68c.92-.46,1.07-1.46,1.24-2.36A22.34,22.34,0,0,1,68.35,93c2.58-1.79,6.51-2.88,8.47-.19a4.41,4.41,0,0,1,.8,2.39c.11,2-.8,3.85-1.68,5.61l-4.87,9.63a1.12,1.12,0,0,0,1.4,1.56l8.24-3.15a4.62,4.62,0,0,1,2.41-.27c2.64.48,2.83,2.93,2.38,4.87-1,4.27-4.22,7.74-8,10s-8,3.55-12.17,4.89a5.58,5.58,0,0,0-3.4,2.12,2.13,2.13,0,0,0,0,2.28c.79,1.13,2.36.87,3.57.43,3.77-1.35,7.21-3.73,11.38-3.66a7.19,7.19,0,0,1,4.14,1.31c3.72,2.72,2.41,7.12-.25,9.5C78,142.82,74.42,144,71,145.4c-6.9,2.74-16.93,8.29-24.23,3.95-4.27-2.54-7.46-7.08-9.47-11.54A24,24,0,0,1,35.11,127.32Z"/><path class="cls-4" d="M49.2,161.41h-.07a.44.44,0,0,1-.36-.51A221.68,221.68,0,0,1,65.85,105a.44.44,0,0,1,.8.37,221.18,221.18,0,0,0-17,55.7A.43.43,0,0,1,49.2,161.41Z"/><path class="cls-4" d="M63,122.34a12.11,12.11,0,0,1-6.94-2,14,14,0,0,1-4.93-7,40,40,0,0,1-1.64-8.32.45.45,0,0,1,.39-.49.43.43,0,0,1,.49.38,38.88,38.88,0,0,0,1.59,8.14,13.2,13.2,0,0,0,4.6,6.53c3.15,2.19,7.85,2.46,12.26.69,4.08-1.62,7.47-4.53,10.76-7.35a.44.44,0,1,1,.57.67c-3.34,2.86-6.79,5.82-11,7.5A16.79,16.79,0,0,1,63,122.34Z"/><path class="cls-4" d="M55.39,144.82a14.06,14.06,0,0,1-7.6-2.07c-4.7-3-6.71-8.73-7.82-12.79a.43.43,0,0,1,.31-.54.44.44,0,0,1,.54.31c1.07,3.92,3,9.45,7.45,12.28,3.78,2.41,9.11,2.58,14.26.45l1-.41a80.84,80.84,0,0,0,13.2-6.46.45.45,0,0,1,.61.14.46.46,0,0,1-.14.61,82.87,82.87,0,0,1-13.34,6.52l-1,.41A19.53,19.53,0,0,1,55.39,144.82Z"/><path class="cls-6" d="M45.55,136.48a5.23,5.23,0,0,0-1.89-3.25,2.47,2.47,0,0,0-1.6-.45c-1.82.14-2.5,2.15-2.61,3.85a8.44,8.44,0,0,1-.7,3.82,2.56,2.56,0,0,1-1.11,1.05c-1.73.8-3.15-.89-3.26-2.49a10.76,10.76,0,0,1,.9-3.91A20.9,20.9,0,0,0,36,124.66c-.41-2.19-1.31-4.5-3.54-5.33a3,3,0,0,0-3.33.74c-1,1.13-.63,2.48-.28,3.71a4.07,4.07,0,0,1,.08,3.12,1.55,1.55,0,0,1-1.72.87c-.69-.17-.95-.83-1.2-1.42a15.61,15.61,0,0,0-8.35-8.27c-2-.83-4.87-1-5.8,1.15a3.07,3.07,0,0,0-.19,1.75,7.91,7.91,0,0,0,2,3.58l4.78,5.83a.78.78,0,0,1-.72,1.27l-6.1-.89A3.1,3.1,0,0,0,10,131c-1.73.72-1.49,2.42-.89,3.68a11.63,11.63,0,0,0,7,5.63,38.82,38.82,0,0,0,9,1.49,3.87,3.87,0,0,1,2.64.94,1.5,1.5,0,0,1,.35,1.55c-.37.89-1.48.95-2.38.84-2.77-.36-5.48-1.46-8.31-.78a5,5,0,0,0-2.63,1.52c-2.13,2.42-.57,5.23,1.61,6.45s4.92,1.57,7.47,2c5.12.82,12.81,3.09,17.13-1A17.93,17.93,0,0,0,45.66,144,16.86,16.86,0,0,0,45.55,136.48Z"/><path class="cls-4" d="M41,162a.45.45,0,0,1-.41-.28,154.26,154.26,0,0,0-20-35.4.45.45,0,0,1,.09-.62.43.43,0,0,1,.61.09,155.07,155.07,0,0,1,20.15,35.6.45.45,0,0,1-.25.58A.41.41,0,0,1,41,162Z"/><path class="cls-4" d="M23.43,137.69a12,12,0,0,1-2-.17,28.49,28.49,0,0,1-8.68-3.46.45.45,0,0,1-.18-.6.44.44,0,0,1,.59-.18,27.85,27.85,0,0,0,8.41,3.38c3.24.53,6.36-.35,8.15-2.29a9.1,9.1,0,0,0,2.12-5.08,27.59,27.59,0,0,0-.15-5.77.44.44,0,0,1,.4-.48.46.46,0,0,1,.48.4,27.89,27.89,0,0,1,.14,5.95A9.94,9.94,0,0,1,30.33,135,9.24,9.24,0,0,1,23.43,137.69Z"/><path class="cls-4" d="M31.57,151.92a14.19,14.19,0,0,1-2.57-.23l-.74-.13a57.8,57.8,0,0,1-10.1-2.43.45.45,0,0,1-.27-.57.44.44,0,0,1,.56-.26,57.6,57.6,0,0,0,10,2.4l.74.13c3.8.67,7.36-.24,9.55-2.43,2.58-2.57,3-6.61,3.19-9.42a.44.44,0,0,1,.46-.42.44.44,0,0,1,.42.46c-.15,3-.66,7.22-3.45,10A10.84,10.84,0,0,1,31.57,151.92Z"/><path class="cls-7" d="M53.46,158.12H34.93a1,1,0,0,0-1,1.28l.69,3a1,1,0,0,0,1,.82H52.77a1.05,1.05,0,0,0,1-.82l.69-3A1,1,0,0,0,53.46,158.12Z"/><path class="cls-8" d="M35.87,163.73l1.49,10.34a1.42,1.42,0,0,0,1.41,1.22H49.62A1.42,1.42,0,0,0,51,174.07l1.49-10.34Z"/><ellipse class="cls-9" cx="123.27" cy="175.52" rx="72.28" ry="7.62"/><ellipse class="cls-9" cx="162.34" cy="186.24" rx="12.37" ry="1.31"/><polygon class="cls-10" points="173.33 123.77 127.36 123.77 109.73 113.98 147.05 113.98 173.33 123.77"/><path class="cls-7" d="M173.33,64.6v59.17H167.2v-2.28L147.05,114V56.68S159.44,42.22,173.33,64.6Z"/><path class="cls-10" d="M167.2,63.57v57.92l-26.28-8.55V55.65S153.31,41.19,167.2,63.57Z"/><rect class="cls-7" x="127.36" y="123.77" width="45.97" height="7.73"/><polygon class="cls-10" points="109.73 113.98 109.73 120.29 127.36 131.5 127.36 123.77 109.73 113.98"/><rect class="cls-11" x="109.73" y="120.4" width="1.95" height="33.01"/><path class="cls-12" d="M143.57,92.07s-18.17,10.3-28.18,11.32-7.94,19.73-8.25,23.07-2.49,24.81-2.49,24.81,2.61,2,5.08.87c0,0,13-32.54,15.23-45.42,0,0,20.27-8.1,29-16.6A32.54,32.54,0,0,1,143.57,92.07Z"/><path class="cls-13" d="M156.6,88.88s12.91,15.23,0,26.84c-9.69,7.26-32.94,8.13-32.94,8.13s3,23.79-1.16,38.74a6.25,6.25,0,0,1-6.53.72,132.21,132.21,0,0,0-3.43-19s10.54-28.6,12.42-37.6c0,0,18-7.46,29-16.6A26,26,0,0,1,156.6,88.88Z"/><path class="cls-12" d="M128.45,15.89s-17.71,5.22-5.66,26.84c2.32,5.08-1.44,8.27.73,15.24S134,80.31,155.15,71.46s20-22.78,16.68-28.73-3.77-7-3.19-17.41-8-27.43-24.9-25.1S128.45,15.89,128.45,15.89Z"/><path class="cls-14" d="M127.29,26.62s-1.16,23.8,14.94,22.64,16.4-12.91,15.67-13.93c0,0,5.07-4.06.21-8.71-2.38-2.46-4.85,2.47-4.85,2.47s-12.62,4.79-23.36-6.38A7.94,7.94,0,0,1,127.29,26.62Z"/><path class="cls-14" d="M143.74,49.12s.93,4.06,0,6.38,2,5.66,5,2.32,2.61-5.51,2.61-5.51a12.57,12.57,0,0,1-.61-5.15A39.69,39.69,0,0,1,143.74,49.12Z"/><path class="cls-11" d="M107.41,94.53S129.46,94.39,133,74.8s10.79-19.3,10.79-19.3a3.44,3.44,0,0,0,3.17,3.6s-8.45,30.36-14.69,33.55-18.43,6.24-23.65,6.24C108.57,98.89,106.39,96.71,107.41,94.53Z"/><path class="cls-15" d="M143.57,92.07s0-11.51-1.92-14.88-4.35-7.47-2.18-13.27a33.24,33.24,0,0,1,4.27-8.42l7.63-3.19s4.79-1.12,8.13.89l-2.9,35.68S150,92.65,143.57,92.07Z"/><path class="cls-16" d="M62,103v3.86c0,1.38,16.47,2.49,36.78,2.49s36.79-1.11,36.79-2.49V103Z"/><ellipse class="cls-4" cx="98.77" cy="103.02" rx="36.78" ry="2.48"/><path class="cls-14" d="M107.41,94.53a41.75,41.75,0,0,0-6.32-.72c-1.45.14-4.06,2.76-6.31,3.55s.87,2.47,4.43,1.89,5.73.44,9.36-.36A4.62,4.62,0,0,1,107.41,94.53Z"/><path class="cls-11" d="M69.71,172.75v2.8c0,1,12,1.8,26.69,1.8s26.68-.81,26.68-1.8v-2.8Z"/><polygon class="cls-11" points="68.16 75.44 77.95 102.32 109.82 102.32 99.93 75.44 68.16 75.44"/><path class="cls-4" d="M123.08,172.75c0,1-12,1.8-26.68,1.8s-26.69-.81-26.69-1.8,12-1.8,26.69-1.8S123.08,171.75,123.08,172.75Z"/><rect class="cls-16" x="94.02" y="109.37" width="4.75" height="62.36"/><path class="cls-17" d="M104.65,151.27S99.83,158.6,96.4,161s-2.27,7,2.37,4.14,7.26-6,9-6.48,2-6.51,2-6.51S106.43,152.43,104.65,151.27Z"/><path class="cls-17" d="M117.14,163.67s1.84,1.79-2.08,3.74-10.66,3.68-9.47,5.34,9.8-.73,12.41-1,5.37-1.49,5.08-3.23-.58-5.91-.58-5.91S121.07,164.4,117.14,163.67Z"/><polygon class="cls-11" points="109.82 102.32 130.69 102.32 130.69 100.97 109.32 100.97 109.82 102.32"/><path class="cls-4" d="M134.66,34.64a12.49,12.49,0,0,1-.45,4.9,2.08,2.08,0,0,0,1.85,3.05,1.94,1.94,0,0,0,1.38-.77Z"/><path class="cls-17" d="M129.61,102.23s26.79-11,27.42-18.71-2.61-22.65-.87-26.42,3.34-3.9,3.34-3.9,5.66,0,6.53,7.09.58,28-7.84,33.23S130.91,105,130.91,105A1.81,1.81,0,0,1,129.61,102.23Z"/><path class="cls-14" d="M129.61,102.23a54,54,0,0,0-6.1,0c-1.67.21-4.64,2.75-6.38,3.77s-1.31,2.46-.44,2.46a10.51,10.51,0,0,0,6.08,0,39.32,39.32,0,0,0,8.14-3.48A2,2,0,0,1,129.61,102.23Z"/><path class="cls-4" d="M129.35,36c.42.21.76.42,1.08.59a1.88,1.88,0,0,0,.79.27,1.1,1.1,0,0,0,.68-.19c.14-.08.29-.2.46-.3a4.37,4.37,0,0,1,.55-.37,2.07,2.07,0,0,1-.33,1.34,1.63,1.63,0,0,1-1.46.73,1.88,1.88,0,0,1-1.33-.78A2.21,2.21,0,0,1,129.35,36Z"/><path class="cls-4" d="M138.62,34.21a5,5,0,0,0,2.92-.45,6,6,0,0,0,1.09-.91c.17-.19.34-.4.53-.6a8.31,8.31,0,0,1,.58-.66,3.94,3.94,0,0,1,0,.91,4.64,4.64,0,0,1-.28.87,3.34,3.34,0,0,1-1.28,1.44,2.88,2.88,0,0,1-1.94.32A2.63,2.63,0,0,1,138.62,34.21Z"/><path class="cls-4" d="M138.62,44.11a8.43,8.43,0,0,0,1.91-1.62,2.26,2.26,0,0,0,.44-1c.1-.38.12-.82.21-1.35a2.25,2.25,0,0,1,.73,1.37,2.13,2.13,0,0,1-.4,1.65,2.58,2.58,0,0,1-1.36.92A2.5,2.5,0,0,1,138.62,44.11Z"/><rect class="cls-11" x="127.36" y="131.5" width="1.95" height="45.85"/><rect class="cls-11" x="171.38" y="131.5" width="1.95" height="45.85"/><rect class="cls-11" x="140.55" y="131.5" width="1.95" height="22.2"/></g></g></g></svg>