<svg xmlns="http://www.w3.org/2000/svg" viewBox="0 0 179.55 200.71"><defs><style>.cls-1{fill:#f4c652;}.cls-2{fill:#ea7b39;}.cls-3{fill:#eb5b28;}.cls-4{fill:#e79969;}.cls-5{fill:#e97c3e;}.cls-6{fill:#f9ea31;}.cls-7{fill:#de7331;}</style></defs><title>note_context_2</title><g id="Layer_2" data-name="Layer 2"><g id="Layer_1-2" data-name="Layer 1"><ellipse class="cls-1" cx="107.27" cy="193.08" rx="72.28" ry="7.62"/><path class="cls-1" d="M29.53,187.88c0,.86-6.61,1.56-14.77,1.56S0,188.74,0,187.88s6.61-1.55,14.76-1.55S29.53,187,29.53,187.88Z"/><path class="cls-2" d="M63.86,176s19.5-12,21.79-22.14c1.67-7.39,1.67-20.17,1.67-20.17l-1.9-31.07s15.71,5.19,19.33,0c0,0,.76,41-9.82,58.18S65.3,181.6,65.3,181.6,62.54,180.28,63.86,176Z"/><path class="cls-3" d="M63.86,176s-6,.34-6.83,2.27,1.54,6.77,1.1,9.63.44,6.62,5.73,6.62,4.2-4,1.44-4.41,0-8.49,0-8.49A5.55,5.55,0,0,1,63.86,176Z"/><path class="cls-3" d="M94.77,9.82S79.34,9.16,76.2,22.6s5.24,21.82,14.91,24.24L110.2,20.62s15.3-8.37,4.12-19.17C105.23-4.5,94.77,9.82,94.77,9.82Z"/><path class="cls-4" d="M110.2,20.62s5.76,12.56,3.67,21.82-16.22,10.8-16.22,10.8a9.23,9.23,0,0,0,0,6.61s-6.28.88-6.54-4.19a21.14,21.14,0,0,0,0-8.82s-8.89-5.06-4.44-11.46c3.4-4.18,5.49,0,5.49,0s9.67-4,8.89-17.63C101.05,17.75,107.07,21.06,110.2,20.62Z"/><polygon class="cls-3" points="119.26 85.42 127.17 69.38 128.66 70.2 120.81 86.9 119.26 85.42"/><path class="cls-5" d="M87,95.12s-2.79,8.94-7.08,12.14c0,0,.16,1.61,4.44,5.09,0,0,8.26-9.82,10.32-14.41Z"/><path class="cls-6" d="M97.65,59.85S110,74,104.75,102.6c0,0-1.41,5.07-19.33,0a13.61,13.61,0,0,0,1.4-9c-1-4.92,6.05-34.92,6.05-34.92A6.07,6.07,0,0,0,97.65,59.85Z"/><path class="cls-7" d="M106.73,28.93a6.07,6.07,0,0,0,1.94,1.33,4,4,0,0,0,1.07.26c.39.06.81.07,1.29.14a2.53,2.53,0,0,1-1.25.66,2.6,2.6,0,0,1-1.48-.11A2.39,2.39,0,0,1,106.73,28.93Z"/><path class="cls-5" d="M91.11,55.66s-9.72-1.54-11.26,10.8,1.3,41.43,34.47,29.09c0,0-2.74-3.31-2.52-6.17,0,0-21.6,5.51-20.94-10.36.45-11.24.72-15.23,4.24-19.25C95.1,59.77,91,58.54,91.11,55.66Z"/><path class="cls-7" d="M113,30.93a11,11,0,0,0,3.09,3.86c1.76,1.1.11,3.53-1.1,3.31l-1.21-.22Z"/><path class="cls-2" d="M85.42,102.6a18.38,18.38,0,0,0,2.25,17.52c6.28,8.59,50.6,55.86,56.87,67.76,0,0,4.61-1.65,5.27-5.95,0,0-46.36-67-45.06-79.33C104.71,102.25,103.25,107.84,85.42,102.6Z"/><path class="cls-3" d="M144.54,187.88s2.3,3.75,4.06,5.07,13-7.71,15-11.35-1.76-4.29-5.51-2.09-6.39,5.16-8.27,2.42A8.73,8.73,0,0,1,144.54,187.88Z"/><path class="cls-4" d="M112.09,89.9s2.23-2.05,3.72-3.26,3-1.87,3.45-1.21-1.3,2.7-1.3,2.7,4.56-5.5,5.31-5.41,2.7,2,0,6.53-9,5.87-9,5.87S111.81,92,112.09,89.9Z"/><path class="cls-4" d="M80.46,108.36a7.42,7.42,0,0,0-2.74,4c-1,2.92-4.82-.72-6,0s-.33,4.13,2.43,5.12,6.17,1.22,6.94,0,3.32-5.12,3.32-5.12S81,109.46,80.46,108.36Z"/><path class="cls-7" d="M94.7,33s-1.3,8.59,1,11.9,13.08-.67,13.91-3.31,4.66-2.78,4.66-2.78,1.62.3,1.29,2.62.17,16.36-14,16.19c-7.93-1-10-12.28-9.39-22.26A8.65,8.65,0,0,0,94.7,33Z"/></g></g></svg>