<?xml version="1.0" encoding="utf-8"?>
<!-- Generator: Adobe Illustrator 22.1.0, SVG Export Plug-In . SVG Version: 6.00 Build 0)  -->
<svg version="1.1" id="Layer_1" xmlns="http://www.w3.org/2000/svg" xmlns:xlink="http://www.w3.org/1999/xlink" x="0px" y="0px"
	 viewBox="0 0 518.5 575.4" style="enable-background:new 0 0 518.5 575.4;" xml:space="preserve">
<style type="text/css">
	.st0{fill:url(#SVGID_1_);}
	.st1{enable-background:new    ;}
	.st2{fill:#FFFFFF;}
</style>
<title>accent-note-logo</title>
<g id="Layer_2_1_">
	<g id="Layer_1-2">
		
			<linearGradient id="SVGID_1_" gradientUnits="userSpaceOnUse" x1="-331.1611" y1="1322.65" x2="-331.1611" y2="1841.1125" gradientTransform="matrix(6.123234e-17 1 1 -6.123234e-17 -1322.65 618.84)">
			<stop  offset="0" style="stop-color:#F15A24"/>
			<stop  offset="1" style="stop-color:#FCEE21"/>
		</linearGradient>
		<path class="st0" d="M480.5,221.9L114,10.3C63.3-19,0,17.6,0,76.1v423.2c0,58.5,63.3,95.1,114,65.8l366.5-211.6
			C531.1,324.2,531.1,251.1,480.5,221.9z"/>
		<g class="st1">
			<path class="st2" d="M109.6,318.4v-43c0-12.4-5.8-18.6-17.2-18.6c-4.2,0-7.5,0.4-9.8,1.1c-2.3,0.7-4,1.3-5,1.8v58.8h-21v-71.8
				c0.4-0.2,1.6-0.7,3.6-1.5c2-0.8,4.6-1.6,7.7-2.5c3.1-0.8,6.8-1.6,11.1-2.2c4.2-0.6,8.9-1,13.9-1c5.6,0,10.7,0.7,15.4,2.1
				c4.6,1.4,8.6,3.5,11.9,6.2s5.9,6,7.6,10c1.8,4,2.7,8.5,2.7,13.6v47.2H109.6z"/>
			<path class="st2" d="M232.3,280.2c0,5.7-1,11-2.9,16c-1.9,5-4.8,9.3-8.4,12.9c-3.7,3.7-8,6.6-13.1,8.7s-10.8,3.2-17.1,3.2
				c-6.3,0-12-1.1-17.1-3.2c-5.1-2.1-9.5-5-13.1-8.7c-3.7-3.6-6.5-8-8.4-12.9c-1.9-4.9-2.9-10.3-2.9-16s1-11,2.9-16
				c2-5,4.7-9.2,8.4-12.9c3.6-3.6,8-6.5,13.1-8.7c5.1-2.1,10.8-3.2,17.1-3.2c6.3,0,12,1.1,17.1,3.2c5.1,2.2,9.5,5.1,13.1,8.7
				c3.6,3.7,6.5,8,8.4,12.9C231.4,269.1,232.3,274.5,232.3,280.2z M211,280.2c0-3.4-0.4-6.6-1.3-9.5c-0.9-2.9-2.2-5.5-3.9-7.6
				c-1.8-2.1-3.9-3.8-6.4-5.1c-2.5-1.2-5.4-1.9-8.7-1.9c-3.3,0-6.2,0.6-8.7,1.9c-2.5,1.3-4.6,3-6.4,5.1c-1.8,2.2-3.1,4.7-3.9,7.6
				c-0.9,3-1.3,6.1-1.3,9.5c0,3.4,0.4,6.6,1.3,9.5c0.8,3,2.1,5.5,3.9,7.6c1.7,2.2,3.9,3.9,6.4,5.1c2.5,1.3,5.4,1.9,8.7,1.9
				c3.3,0,6.2-0.6,8.7-1.9c2.5-1.2,4.6-2.9,6.4-5.1c1.7-2.1,3-4.7,3.9-7.6C210.6,286.7,211,283.6,211,280.2z"/>
			<path class="st2" d="M276.4,259v33.2c0,4.4,1,7.4,3.1,8.9c2,1.6,4.7,2.3,8,2.3c1.4,0,2.8-0.2,4.1-0.5c1.3-0.3,2.5-0.8,3.6-1.2
				c1-0.5,1.9-0.9,2.6-1.4c0.7-0.5,1.1-0.7,1.2-0.8l7.8,12.6c-0.2,0.2-0.9,0.8-2,1.6c-1.1,0.9-2.7,1.9-4.7,2.9
				c-2.1,1-4.6,1.9-7.5,2.7c-3,0.8-6.3,1.2-10,1.2c-9.6,0-16.6-2.4-20.8-7.3c-4.3-4.9-6.5-11.2-6.5-19V259h-5
				c-3.4,0-5.8-0.8-7.1-2.2s-2-3.6-2-6.3c0-2.1,0.3-3.9,0.9-5.5c0.6-1.5,1-2.6,1.2-3.1h12v-13.2c0-3.4,1-5.7,3-7c2-1.3,4.7-2,8-2
				c2.3,0,4.4,0.3,6.4,0.8c2,0.5,3.2,0.9,3.7,1v20.4h16c3.4,0,5.8,0.8,7.1,2.2c1.4,1.5,2,3.6,2,6.3c0,2.1-0.3,3.9-0.9,5.5
				c-0.6,1.6-1,2.6-1.2,3.1H276.4z"/>
			<path class="st2" d="M389.8,268.9c0,3.1-0.4,5.9-1.3,8.4c-0.9,2.5-2.2,4.6-4,6.4c-1.9,1.8-4.3,3.1-7.4,4c-3.1,1-6.8,1.4-11.3,1.4
				h-30c0.9,4.1,3.3,7.6,7.2,10.4c3.9,2.9,9,4.3,15.5,4.3c6.4,0,11.3-0.5,14.8-1.4c3.5-0.9,5.6-1.6,6.4-2l5.7,14.8
				c-0.2,0.2-1.1,0.6-2.6,1.2c-1.5,0.6-3.5,1.2-6.1,1.9c-2.6,0.6-5.6,1.2-9.1,1.8c-3.5,0.5-7.4,0.8-11.7,0.8c-6,0-11.5-0.8-16.6-2.4
				c-5.1-1.6-9.5-4.1-13.2-7.4s-6.7-7.4-8.8-12.5c-2.1-5-3.2-10.9-3.2-17.7c0-6.3,1-12,2.9-17.1c2-5.1,4.7-9.5,8.2-13.1
				c3.5-3.6,7.8-6.5,12.8-8.5c5-2,10.5-3,16.7-3c5.7,0,10.7,0.8,15.1,2.3c4.3,1.6,8,3.7,10.9,6.4c2.9,2.7,5.2,5.8,6.7,9.4
				C389.1,261.1,389.8,264.9,389.8,268.9z M370,267.1c0-1.4-0.3-2.9-0.8-4.5c-0.6-1.6-1.4-3-2.6-4.4c-1.2-1.3-2.8-2.4-4.8-3.2
				c-2-0.8-4.5-1.3-7.3-1.3c-3.2,0-6,0.7-8.4,2.1c-2.4,1.4-4.4,3.1-6,5.2c-1.6,2.1-2.8,4.4-3.6,6.9c-0.8,2.5-1.2,4.9-1.2,7.2h26.9
				c3.3,0,5.4-0.7,6.4-2C369.5,271.8,370,269.8,370,267.1z"/>
			<path class="st2" d="M431.4,307.3c0,3.8-1.3,7-4,9.7c-2.7,2.6-5.9,4-9.7,4c-3.8,0-7-1.3-9.7-4c-2.7-2.6-4-5.9-4-9.7
				c0-3.8,1.3-7,4-9.7c2.6-2.6,5.9-4,9.7-4c3.8,0,7,1.3,9.7,4C430.1,300.3,431.4,303.5,431.4,307.3z"/>
		</g>
	</g>
</g>
</svg>
