<svg xmlns="http://www.w3.org/2000/svg" viewBox="0 0 477.96 481.41"><defs><style>.cls-1{fill:#010101;}</style></defs><title>accent-it-logo</title><g id="Layer_2" data-name="Layer 2"><g id="Layer_1-2" data-name="Layer 1"><path class="cls-1" d="M460.32,157.59c-7.46,5.34-14.9,10.69-22.38,16q-16.81,11.94-33.66,23.83l-1.77,1.27a160.91,160.91,0,0,1,.32,96.52L480.11,336l-.15.39-85.15-20.54a161.68,161.68,0,0,1-60.43,67.73l28.53,63.18a4.75,4.75,0,0,1-2.23-1.93q-21.2-25.23-42.36-50.51c-.91-1.09-1.56-1.35-2.93-.74C279.14,409.49,242,411.81,204,400.86c-.33-.09-.67-.16-1.19-.29L161.33,476l-.41-.13,21.8-83.05A161.73,161.73,0,0,1,113.3,331L47.15,354.53l-.21-.45L104,313.67c-15.95-36.38-18.41-73.53-7.71-111.8L23.71,163.7l.14-.43,79.71,19.23a161.11,161.11,0,0,1,62.32-71.33L137.57,48.51l.55-.42,45.08,53.71c38.67-17,78.08-19,118.51-6L342,22.71l.34.14L321.19,104q49.84,25.49,74.2,76.31L409,175.46l51.1-18.14ZM368.82,277.28c13.88-53.67-11.68-110.53-57.43-135.66l-24.15,92.72c-4.86-9.72-12-16.38-21.6-20.22s-19.38-3.3-29.33.49l46.86-85.11c-55.84-16.2-117,10.81-142.13,62.05l94.93,22.93c-20.32,12.94-25.62,26.39-19.88,50.36l-42.68-22.47-43-22.57c-6.49,30.63-2.78,59.63,12.24,86.95C154.31,328,171,344.19,192.46,355.8l23.78-90.52c11.62,19.53,28,26.44,50,19.77l-44.82,81.64c56.46,13.45,111.36-14.49,135.76-59.93l-90.76-21.91c9.35-5.14,16.22-12.08,20.45-21.39s4.23-19.13.43-29.18Z" transform="translate(-11.44 -7.4)"/><path class="cls-1" d="M349.6,9.7l-2.66,7.7-.75.1c-1.6-2.15-1-5-2-7.53-1.23,1.79-1.19,4.12-2.75,5.72.06-2.81,1.42-5.24,2.3-8.29,2.78,2.05,1.39,5.26,2.84,7.43,1.06-1.69,1-3.84,2.3-5.39Z" transform="translate(-11.44 -7.4)"/><path class="cls-1" d="M15.14,156.77,11.83,161c-.92-2.95.08-5.28.13-8.2,1.54,1.93-.22,3.69.85,5.24,1.47-.8,1.76-2.61,3.42-3.42.45,1.93-.4,3.67-.16,5.56,1.63-1,2-3.1,3.65-3.93l.46.36c-1.35,1.69-2.69,3.4-4.06,5.07a.88.88,0,0,1-.75.09c-.52-.16-.46-.62-.4-1A11.44,11.44,0,0,0,15.14,156.77Zm-2.47,2.1c-.07-.38.45-.43.12-.85-.13-.16-.2-.14-.33,0S12.25,158.5,12.67,158.87Z" transform="translate(-11.44 -7.4)"/><path class="cls-1" d="M161.15,482.86c-.73-.56-1-.84-1.37-1-.62-.37-1.32-.68-1.91,0s-.24,1.41.31,2c.24.26.48.51.73.75a2.38,2.38,0,0,1,.74,3,2.17,2.17,0,0,1-2.44,1.23c-1.21-.2-2.43-.49-2.74-2.19,1,0,1.33.84,2,1.06s1.39.37,1.91-.28a1.34,1.34,0,0,0-.18-1.89c-.38-.41-.78-.8-1.16-1.21a2.22,2.22,0,0,1-.43-2.7,1.89,1.89,0,0,1,2.09-1.09C159.75,480.66,160.9,480.86,161.15,482.86Z" transform="translate(-11.44 -7.4)"/><path class="cls-1" d="M485.93,335.18c1.26.65,2.44.81,3.48,1.71-1.26.4-2-.51-2.87-.5a2.88,2.88,0,0,0-.68,1.64c.44.7,1.51.44,1.86,1.37-.83.48-1.38-.55-2.43-.17-.35.3-.43,1-.66,1.67.64.8,1.86.51,2.3,1.65-1.31,0-2.25-.69-3.51-1.14Z" transform="translate(-11.44 -7.4)"/><path class="cls-1" d="M460.08,157.32c.17,0,.44-.13.48-.08.15.22,0,.31-.24.34Z" transform="translate(-11.44 -7.4)"/></g></g></svg>